<?xml version="1.0" encoding="utf-8"?>
<!-- Generator: Adobe Illustrator 18.0.0, SVG Export Plug-In . SVG Version: 6.00 Build 0)  -->
<!DOCTYPE svg PUBLIC "-//W3C//DTD SVG 1.1//EN" "http://www.w3.org/Graphics/SVG/1.1/DTD/svg11.dtd">
<svg version="1.1" id="Capa_1" xmlns="http://www.w3.org/2000/svg" xmlns:xlink="http://www.w3.org/1999/xlink" x="0px" y="0px"
	 viewBox="0 0 48 48" enable-background="new 0 0 48 48" xml:space="preserve">
<g id="Layer_1">
	<g>
		<path d="M40.6,1.6H20.2c-3.3,0-6,2.7-6,6c0,0.3,0,0.7,0.1,1h13.1c4.9,0,9,4,9,9c0,2.9-1.4,5.6-3.8,7.3v11.5h8c1.3,0,2.3-1,2.3-2.3
			v-21c2.1-0.9,3.7-3.1,3.7-5.6C46.6,4.2,43.9,1.6,40.6,1.6z"/>
		<path d="M33.4,17.5c0-5.3-5-6-6-6H7c-1.2,0-6,1-6,6c0,4.2,2.8,5.2,3.8,5.6l0,20.6c0,1.5,1.2,2.6,2.6,2.6H27c0.7,0,1.4-0.3,1.9-0.8
			c0.5-0.5,0.8-1.2,0.8-1.9l0-20.6C30.7,22.7,33.4,20.9,33.4,17.5z M28.5,20.3l-1.8,0.8v2v20.3h-19V23.1v-2l-1.8-0.8
			C4.7,19.9,4,18.8,4,17.5c0-1.7,1.4-3,3-3h20.4c1.7,0,3,1.4,3,3C30.4,18.7,29.7,19.9,28.5,20.3z"/>
		<circle cx="13.8" cy="20.6" r="1.7"/>
		<circle cx="19" cy="23.4" r="1.8"/>
		<circle cx="14.2" cy="28.9" r="2.1"/>
		<circle cx="20.8" cy="32.7" r="1.8"/>
		<circle cx="17.4" cy="38.1" r="1.8"/>
		<circle cx="12.4" cy="36" r="1"/>
		<circle cx="22.8" cy="18.4" r="1.3"/>
	</g>
</g>
</svg>
