<?xml version="1.0" encoding="utf-8"?>
<!-- Generator: Adobe Illustrator 18.0.0, SVG Export Plug-In . SVG Version: 6.00 Build 0)  -->
<!DOCTYPE svg PUBLIC "-//W3C//DTD SVG 1.1//EN" "http://www.w3.org/Graphics/SVG/1.1/DTD/svg11.dtd">
<svg version="1.1" id="Capa_1" xmlns="http://www.w3.org/2000/svg" xmlns:xlink="http://www.w3.org/1999/xlink" x="0px" y="0px"
	 viewBox="0 0 48 48" enable-background="new 0 0 48 48" xml:space="preserve">
<g id="Layer_1">
	<g>
		<path d="M30.2,31.9c-1.5,0.9-3.3,1.3-5,1.3c-3.7,0-7.1-2-8.9-5.2c-2.8-4.9-1.1-11.2,3.9-14c0.7-0.4,1.6-0.8,2.6-1.1
			c-1.3-0.7-2.5-1.2-3.5-1.5C12,9,4.1,13,1.7,20.2C-0.3,26.2,2,32,6.9,36h34.6c0,0,0.9-0.6,1.4-2.1c1-2.8-1.4-6.5-4.9-10.1
			C35.9,27.3,32.7,30.5,30.2,31.9z"/>
		<path d="M46.5,13.4C46,12.6,45.1,12,44.2,12c0,0-0.1,0-0.1,0c0.5-1,0.6-1.7,0.1-2.6c-0.5-0.8-1.3-1.3-2.2-1.3
			c-0.4,0-0.9,0.1-1.3,0.4c-1.2,0.7-1.7,2.3-1,3.5c0.1,0.1,0.2,0.3,0.3,0.4l-5.1,2.9c-1.1-0.6-2.6-0.8-4.2-0.8c-3.3,0-7.1,1-9.1,2.1
			c-3.5,2-4.7,6.4-2.7,9.9c1.3,2.3,3.8,3.7,6.3,3.7c1.2,0,2.4-0.3,3.6-0.9c2.9-1.7,7.7-7.1,7.9-10.8l5.1-2.9
			c0.1,0.2,0.1,0.3,0.2,0.5c0.5,0.8,1.3,1.3,2.2,1.3c0.4,0,0.9-0.2,1.3-0.4C46.7,16.3,47.2,14.6,46.5,13.4z"/>
		<path d="M38.9,39H9.1c-1.4,0-2.5,1.1-2.5,2.5S7.7,44,9.1,44h29.9c1.4,0,2.5-1.1,2.5-2.5S40.3,39,38.9,39z"/>
	</g>
</g>
</svg>
