<?xml version="1.0" encoding="utf-8"?>
<!-- Generator: Adobe Illustrator 18.0.0, SVG Export Plug-In . SVG Version: 6.00 Build 0)  -->
<!DOCTYPE svg PUBLIC "-//W3C//DTD SVG 1.1//EN" "http://www.w3.org/Graphics/SVG/1.1/DTD/svg11.dtd">
<svg version="1.1" id="Capa_1" xmlns="http://www.w3.org/2000/svg" xmlns:xlink="http://www.w3.org/1999/xlink" x="0px" y="0px"
	 viewBox="0 0 48 48" enable-background="new 0 0 48 48" xml:space="preserve">
<g id="Layer_1">
	<path d="M33.4,17.4c-0.7-0.8-1.6-1.5-2.6-2v-3.5c0-0.9-0.7-1.6-1.6-1.6h-2.3V7.1c0-0.4-0.2-0.9-0.5-1.2l-4.1-3.8
		c-0.5-0.4-1.2-0.6-1.7-0.3c-0.6,0.3-1,0.8-1,1.5v7h-2.3c-0.9,0-1.6,0.7-1.6,1.6v3.5c-1,0.5-1.9,1.2-2.6,2c-1.8,2-2.6,4.6-2.3,7.2
		l1.9,17.5c0.3,2.4,2.3,4.3,4.8,4.3H29c2.5,0,4.5-1.8,4.8-4.3l2-17.5C36,22,35.2,19.4,33.4,17.4z M15.8,20.1
		c0.9-1.1,2.3-1.7,3.7-1.8v8.4h7.3v-8.4c1.4,0.1,2.7,0.7,3.7,1.8c1,1.1,1.5,2.7,1.3,4.2l-1.2,10.5h-15l-1.2-10.5
		C14.3,22.7,14.8,21.2,15.8,20.1z"/>
</g>
</svg>
