<?xml version="1.0" encoding="utf-8"?>
<!-- Generator: Adobe Illustrator 18.0.0, SVG Export Plug-In . SVG Version: 6.00 Build 0)  -->
<!DOCTYPE svg PUBLIC "-//W3C//DTD SVG 1.1//EN" "http://www.w3.org/Graphics/SVG/1.1/DTD/svg11.dtd">
<svg version="1.1" id="Capa_1" xmlns="http://www.w3.org/2000/svg" xmlns:xlink="http://www.w3.org/1999/xlink" x="0px" y="0px"
	 viewBox="0 0 48 48" enable-background="new 0 0 48 48" xml:space="preserve">
<g id="Layer_1">
	<path d="M42.9,2.1c-0.3-0.4-0.8-0.7-1.3-0.8c-0.5-0.1-1.1,0.1-1.5,0.4l-27.2,20c-0.9,0.7-1.1,1.9-0.4,2.8l1.4,1.9L3.8,33.8
		c-3.1,2.3-3.7,6.6-1.4,9.7c2.3,3.1,6.6,3.8,9.7,1.5l10.1-7.4l1.4,1.9c0.4,0.5,1,0.8,1.6,0.8c0.4,0,0.8-0.1,1.2-0.4l12.2-9
		C47.7,24.2,49.6,11.3,42.9,2.1z M36.1,27.7l-10.6,7.8l-8.7-11.8L40.8,6.2C44.8,13.4,43,22.7,36.1,27.7z"/>
</g>
</svg>
