<?xml version="1.0" encoding="utf-8"?>
<!-- Generator: Adobe Illustrator 18.0.0, SVG Export Plug-In . SVG Version: 6.00 Build 0)  -->
<!DOCTYPE svg PUBLIC "-//W3C//DTD SVG 1.1//EN" "http://www.w3.org/Graphics/SVG/1.1/DTD/svg11.dtd">
<svg version="1.1" id="Capa_1" xmlns="http://www.w3.org/2000/svg" xmlns:xlink="http://www.w3.org/1999/xlink" x="0px" y="0px"
	 viewBox="0 0 48 48" enable-background="new 0 0 48 48" xml:space="preserve">
<g id="Layer_1">
	<g>
		<path d="M15.4,23.2h-3.6c-1.4,0-2.5,1.1-2.5,2.5s1.1,2.5,2.5,2.5h25.3c1.4,0,2.5-1.1,2.5-2.5s-1.1-2.5-2.5-2.5h-3.6
			c5.3-3.1,8.8-8.8,8.8-15.4c0,0,0,0,0,0C42.3,5.7,40.7,4,38.6,4H10.5C8.4,4,6.7,5.7,6.7,7.8v0C6.7,14.4,10.2,20.1,15.4,23.2z"/>
		<path d="M45.9,36.7c-0.6-0.5-1.3-0.8-2.1-0.8l-22.9,0.7c-1.5-2.4-5.2-4-9.5-4c-5.6,0-10.2,2.8-10.2,6.3c0,3.5,4.6,6.3,10.2,6.3
			c4.4,0,8.1-1.7,9.5-4l22.9,0.7c0.8,0,1.5-0.3,2.1-0.8s0.9-1.3,0.9-2.1C46.8,38,46.5,37.2,45.9,36.7z"/>
	</g>
</g>
</svg>
