<?xml version="1.0" encoding="utf-8"?>
<!-- Generator: Adobe Illustrator 18.0.0, SVG Export Plug-In . SVG Version: 6.00 Build 0)  -->
<!DOCTYPE svg PUBLIC "-//W3C//DTD SVG 1.1//EN" "http://www.w3.org/Graphics/SVG/1.1/DTD/svg11.dtd">
<svg version="1.1" id="Capa_1" xmlns="http://www.w3.org/2000/svg" xmlns:xlink="http://www.w3.org/1999/xlink" x="0px" y="0px"
	 viewBox="0 0 48 48" enable-background="new 0 0 48 48" xml:space="preserve">
<g id="Layer_1">
	<g>
		<path d="M6,34.8c0.8,0,1.5-0.2,2.1-0.5c1.1,3.4,4.3,5.8,8.1,5.8c4.7,0,8.5-3.8,8.5-8.5v-5.1c0-1.4-1.2-2.6-2.6-2.6H10.3
			c-1.2,0-2.2,0.8-2.5,2c-0.5-0.2-1.1-0.3-1.7-0.3c-2.6,0-4.7,2.1-4.7,4.7C1.4,32.6,3.5,34.8,6,34.8z M6,28.3c0.8,0,1.4,0.5,1.6,1.2
			v1.2c-0.2,0.7-0.9,1.2-1.6,1.2c-1,0-1.7-0.8-1.7-1.7S5.1,28.3,6,28.3z"/>
		<path d="M42.6,11.2c2.3-0.4,4.1-2.4,4.1-4.8c0-2.7-2.2-4.9-4.9-4.9H12.6c-2.7,0-4.9,2.2-4.9,4.9s2.2,4.9,4.9,4.9h1.7v8.6
			c0,1.1,0.9,2,1.9,2s1.9-0.9,1.9-2v-8.6h12.8l3.9,29.4H4.5c-1.6,0-2.9,1.3-2.9,2.9s1.3,2.9,2.9,2.9h39c1.6,0,3-1.3,2.9-2.9
			C46,35.4,42.6,11.2,42.6,11.2z"/>
	</g>
</g>
</svg>
