<?xml version="1.0" encoding="utf-8"?>
<!-- Generator: Adobe Illustrator 18.0.0, SVG Export Plug-In . SVG Version: 6.00 Build 0)  -->
<!DOCTYPE svg PUBLIC "-//W3C//DTD SVG 1.1//EN" "http://www.w3.org/Graphics/SVG/1.1/DTD/svg11.dtd">
<svg version="1.1" id="Capa_1" xmlns="http://www.w3.org/2000/svg" xmlns:xlink="http://www.w3.org/1999/xlink" x="0px" y="0px"
	 viewBox="0 0 48 48" enable-background="new 0 0 48 48" xml:space="preserve">
<g id="Layer_1">
	<g>
		<path d="M35.4,12.1l0.4-1.5c0.1-0.5,0-1.1-0.3-1.5c-0.3-0.4-0.8-0.7-1.3-0.7h-5.9c-0.2-3.9-3.4-7-7.4-7c-3.9,0-7.2,3.1-7.4,7H5.2
			C4.6,8.5,4,8.8,3.7,9.3c-0.3,0.5-0.3,1.2,0,1.7l3.8,6.1L6.1,37.1c-0.2,2.3,0.6,4.6,2.2,6.3c1.6,1.7,3.8,2.7,6.1,2.7h13
			c2.3,0,4.6-1,6.1-2.7c1.6-1.7,2.4-4,2.2-6.3L34.3,17h0.9c2,0,3.6,1.6,3.6,3.6v8.8c0,1.3,1.1,2.4,2.4,2.4c1.3,0,2.4-1.1,2.4-2.4
			v-8.8C43.7,16,40,12.2,35.4,12.1z M10.3,33.5l1.2-16.2h18.9l1.2,16.2H10.3z"/>
		<path d="M16.9,24.5h7.8c0.8,0,1.5-0.7,1.5-1.5c0-0.8-0.7-1.5-1.5-1.5h-7.8c-0.8,0-1.5,0.7-1.5,1.5C15.5,23.9,16.1,24.5,16.9,24.5z
			"/>
		<path d="M24.7,28.4h-7.8c-0.8,0-1.5,0.7-1.5,1.5c0,0.8,0.7,1.5,1.5,1.5h7.8c0.8,0,1.5-0.7,1.5-1.5C26.2,29.1,25.5,28.4,24.7,28.4z
			"/>
	</g>
</g>
</svg>
