<?xml version="1.0" encoding="utf-8"?>
<!-- Generator: Adobe Illustrator 18.0.0, SVG Export Plug-In . SVG Version: 6.00 Build 0)  -->
<!DOCTYPE svg PUBLIC "-//W3C//DTD SVG 1.1//EN" "http://www.w3.org/Graphics/SVG/1.1/DTD/svg11.dtd">
<svg version="1.1" id="Capa_1" xmlns="http://www.w3.org/2000/svg" xmlns:xlink="http://www.w3.org/1999/xlink" x="0px" y="0px"
	 viewBox="0 0 48 48" enable-background="new 0 0 48 48" xml:space="preserve">
<g id="Layer_1">
	<g>
		<path d="M24.2,38.1c-2.7,0-4.9-1.9-6.1-4.7h-4.6l0.6,10.1c0.1,2.1,1.9,3.8,4.1,3.8h12.1c2.1,0,3.9-1.7,4.1-3.8l0.6-10.1h-4.6
			C29.2,36.2,26.9,38.1,24.2,38.1z"/>
		<path d="M33,4.7V4c0-1.5-1.2-2.8-2.7-2.8H18.1c-1.5,0-2.7,1.2-2.7,2.8v0.7c-3.3,0.7-5.7,3.6-5.7,7v1.8c0,0.8,0.7,1.5,1.5,1.5h1.2
			l0.6,9.5h5.4c1.2-2.5,3.3-4.2,5.8-4.2s4.6,1.7,5.8,4.2h5.4l0.6-9.5h1.2c0.8,0,1.5-0.7,1.5-1.5v-1.8C38.7,8.2,36.3,5.3,33,4.7z
			 M35.8,11.9H12.7v-0.3c0-2.3,1.9-4.2,4.2-4.2c0.8,0,1.5-0.7,1.5-1.5V4.2H30V6c0,0.8,0.7,1.5,1.5,1.5c2.3,0,4.2,1.9,4.2,4.2
			C35.8,11.7,35.8,11.9,35.8,11.9z"/>
		<ellipse cx="24.2" cy="29.2" rx="3.9" ry="6"/>
	</g>
</g>
</svg>
