<?xml version="1.0" encoding="utf-8"?>
<!-- Generator: Adobe Illustrator 18.0.0, SVG Export Plug-In . SVG Version: 6.00 Build 0)  -->
<!DOCTYPE svg PUBLIC "-//W3C//DTD SVG 1.1//EN" "http://www.w3.org/Graphics/SVG/1.1/DTD/svg11.dtd">
<svg version="1.1" id="Capa_1" xmlns="http://www.w3.org/2000/svg" xmlns:xlink="http://www.w3.org/1999/xlink" x="0px" y="0px"
	 viewBox="0 0 48 48" enable-background="new 0 0 48 48" xml:space="preserve">
<g id="Layer_1">
	<g>
		<path d="M22,39.9c0.6,0.1,1.2,0.1,1.9,0.1c0.7,0,1.4,0,2.1-0.1l0.3-9.8c-0.6-0.3-1.2-0.7-1.7-1.2c-0.9-1-1.4-2.3-1.3-3.7l0.5-6.7
			c-0.6,0.8-1.4,1.4-2.4,1.8L22,39.9z"/>
		<path d="M36.3,5v4.3C40.4,12.8,43,18,43,23.8c0,5.8-2.6,11-6.7,14.5v4.3c6.1-4,10.1-10.9,10.1-18.8C46.4,15.9,42.4,9,36.3,5z"/>
		<path d="M24.6,3.5v1.1c0.1,0,0.2,0,0.4,0c0.4-1.3,1.2-2.4,2.3-3.2c-1.1-0.2-2.3-0.3-3.4-0.3c-0.1,0-0.3,0-0.4,0
			C24.1,1.8,24.6,2.6,24.6,3.5z"/>
		<path d="M36.3,13.4v1.8v13.3v5.6c2.4-2.8,3.8-6.4,3.8-10.4C40,19.9,38.7,16.2,36.3,13.4z"/>
		<path d="M9.5,16.2c-1.2,2.3-1.9,4.8-1.9,7.5c0,4.3,1.7,8.2,4.4,11.1l0.5-14.7C10.9,19.6,9.7,18.1,9.5,16.2z"/>
		<path d="M25.8,43.1l0-0.3c-0.7,0.1-1.3,0.1-2,0.1c-0.6,0-1.2,0-1.8-0.1l0,0.3c0,1.1-0.4,2.2-1.1,3c0.9,0.1,1.9,0.2,2.8,0.2
			c1,0,2-0.1,3-0.2C26.2,45.3,25.8,44.2,25.8,43.1z"/>
		<path d="M4.7,23.8c0-4.8,1.8-9.3,4.8-12.6V6.4c-5,4.1-8.2,10.4-8.2,17.4c0,8,4.2,15.1,10.5,19.1l0.1-4.1
			C7.6,35.3,4.7,29.8,4.7,23.8z"/>
		<path d="M31.6,2L31.6,2c-2.6,0-4.8,2-5,4.6l-1.3,18.7c-0.1,0.8,0.2,1.6,0.8,2.2s1.3,1,2.2,1h0.1l-0.5,14.7c0,0.6,0.2,1.2,0.7,1.7
			c0.4,0.5,1,0.7,1.7,0.7H32c1.3,0,2.3-1.1,2.3-2.3V28.5V15.2V4.7C34.3,3.2,33.1,2,31.6,2z"/>
		<path d="M19.4,18.5h0.5c1.5,0,2.8-1.2,2.8-2.7V3.5c0-0.5-0.4-0.9-0.9-0.9h-0.2c-0.5,0-0.8,0.4-0.8,0.9v8.1c0,0.7-0.6,1.3-1.3,1.3
			h-0.2c-0.7,0-1.3-0.6-1.3-1.3V3.5c0-0.5-0.4-0.9-0.8-0.9H17c-0.5,0-0.9,0.4-0.9,0.9v8.1c0,0.7-0.6,1.3-1.3,1.3h-0.2
			c-0.7,0-1.3-0.6-1.3-1.3V3.5c0-0.5-0.4-0.9-0.8-0.9h-0.2c-0.5,0-0.8,0.4-0.8,0.9v12.3c0,1.5,1.2,2.7,2.7,2.7h0.4l-0.8,24.7
			c0,0.6,0.2,1.2,0.6,1.7c0.4,0.4,1,0.7,1.6,0.7h1.8c0.6,0,1.2-0.3,1.6-0.7c0.4-0.4,0.7-1.1,0.6-1.7L19.4,18.5z"/>
	</g>
</g>
</svg>
