<?xml version="1.0" encoding="utf-8"?>
<!-- Generator: Adobe Illustrator 18.0.0, SVG Export Plug-In . SVG Version: 6.00 Build 0)  -->
<!DOCTYPE svg PUBLIC "-//W3C//DTD SVG 1.1//EN" "http://www.w3.org/Graphics/SVG/1.1/DTD/svg11.dtd">
<svg version="1.1" id="Capa_1" xmlns="http://www.w3.org/2000/svg" xmlns:xlink="http://www.w3.org/1999/xlink" x="0px" y="0px"
	 viewBox="0 0 48 48" enable-background="new 0 0 48 48" xml:space="preserve">
<g id="Layer_1">
	<g>
		<circle fill="none" cx="19.7" cy="20.1" r="1.2"/>
		<circle fill="none" cx="16.5" cy="24.6" r="1.3"/>
		<circle fill="none" cx="26" cy="26.6" r="1.7"/>
		<circle fill="none" cx="35.4" cy="24.6" r="1.3"/>
		<circle fill="none" cx="32.2" cy="20.1" r="1.2"/>
		<path d="M36.5,18.1c-0.8-2-2.2-3.8-3.9-5c-1,2.7-3.7,4.6-6.7,4.6c-3.1,0-5.7-1.9-6.7-4.6c-1.7,1.3-3.1,3-3.9,5.1
			c-3.5,0.8-6,3.9-6,7.6c0,4.3,3.5,7.7,7.7,7.7c1.3,0,2.6-0.4,3.7-1c1.6,0.8,3.3,1.3,5.2,1.3H26c1.9,0,3.6-0.5,5.2-1.3
			c1.1,0.6,2.3,0.9,3.7,0.9c4.3,0,7.7-3.5,7.7-7.7C42.6,22,40,18.9,36.5,18.1z M16.5,26c-0.7,0-1.3-0.6-1.3-1.3s0.6-1.3,1.3-1.3
			c0.7,0,1.3,0.6,1.3,1.3S17.3,26,16.5,26z M19.7,21.3c-0.7,0-1.2-0.6-1.2-1.2c0-0.7,0.6-1.2,1.2-1.2s1.2,0.6,1.2,1.2
			C21,20.8,20.4,21.3,19.7,21.3z M26,28.3c-0.9,0-1.7-0.8-1.7-1.7c0-0.9,0.8-1.7,1.7-1.7c0.9,0,1.7,0.8,1.7,1.7
			C27.7,27.6,26.9,28.3,26,28.3z M32.2,21.3c-0.7,0-1.2-0.6-1.2-1.2c0-0.7,0.6-1.2,1.2-1.2c0.7,0,1.2,0.6,1.2,1.2
			C33.4,20.8,32.9,21.3,32.2,21.3z M35.4,26c-0.7,0-1.3-0.6-1.3-1.3s0.6-1.3,1.3-1.3c0.7,0,1.3,0.6,1.3,1.3S36.1,26,35.4,26z"/>
		<path d="M31.2,35C29.6,35.6,27.8,36,26,36c-1.8,0-3.6-0.4-5.2-1.1c-1.1,0.5-2.4,0.7-3.7,0.7c-1,0-2-0.2-3-0.4l2.3,7
			c0.9,2.8,3.5,4.6,6.4,4.6h6.3c2.9,0,5.5-1.9,6.4-4.6l2.3-7c-0.9,0.3-1.9,0.4-3,0.4C33.6,35.7,32.3,35.4,31.2,35z"/>
		<path d="M25.8,9.4c-0.9,0-1.7-0.8-1.7-1.7C24.2,7,24,6.5,23.9,6C22.2,6.8,21,8.5,21,10.5c0,2.7,2.2,4.9,4.9,4.9s4.9-2.2,4.9-4.9
			c0-2.3-1.5-4.2-3.6-4.7c0.1,0.6,0.2,1.2,0.2,1.9C27.5,8.6,26.8,9.4,25.8,9.4z"/>
		<path d="M21.1,2.2c0,0,4.2,1.1,4.2,5.4c0,0.3,0.3,0.6,0.6,0.6c0.3,0,0.6-0.3,0.6-0.6c0-5.2-5-6.5-5-6.5c-0.3-0.1-0.6,0.1-0.7,0.4
			C20.6,1.9,20.8,2.2,21.1,2.2z"/>
	</g>
</g>
</svg>
