<?xml version="1.0" encoding="utf-8"?>
<!-- Generator: Adobe Illustrator 18.0.0, SVG Export Plug-In . SVG Version: 6.00 Build 0)  -->
<!DOCTYPE svg PUBLIC "-//W3C//DTD SVG 1.1//EN" "http://www.w3.org/Graphics/SVG/1.1/DTD/svg11.dtd">
<svg version="1.1" id="Capa_1" xmlns="http://www.w3.org/2000/svg" xmlns:xlink="http://www.w3.org/1999/xlink" x="0px" y="0px"
	 viewBox="0 0 48 48" enable-background="new 0 0 48 48" xml:space="preserve">
<g id="Layer_1">
	<path d="M42.4,4.1c-5.1-4.8-13.1-4.6-17.9,0.5c-4.1,4.3-9.3,15.8-7.7,22.1l-7.1,7.5c-0.2-0.2-0.4-0.5-0.6-0.7
		c-1.8-1.7-4.7-1.6-6.4,0.2c-1.7,1.8-1.6,4.7,0.2,6.4c1.3,1.2,3,1.5,4.6,1c-0.4,1.6,0,3.3,1.2,4.5c1.8,1.7,4.7,1.6,6.4-0.2
		c1.7-1.8,1.6-4.7-0.2-6.4c-0.2-0.2-0.4-0.4-0.7-0.5l7.1-7.5c6.4,1.2,17.6-4.7,21.6-9C47.7,16.9,47.5,8.9,42.4,4.1z"/>
</g>
</svg>
