<?xml version="1.0" encoding="iso-8859-1"?>
<!-- Generator: Adobe Illustrator 18.0.0, SVG Export Plug-In . SVG Version: 6.00 Build 0)  -->
<!DOCTYPE svg PUBLIC "-//W3C//DTD SVG 1.1//EN" "http://www.w3.org/Graphics/SVG/1.1/DTD/svg11.dtd">
<svg version="1.1" id="Capa_1" xmlns="http://www.w3.org/2000/svg" xmlns:xlink="http://www.w3.org/1999/xlink" x="0px" y="0px"
	 viewBox="0 0 62.907 62.907" style="enable-background:new 0 0 62.907 62.907;" xml:space="preserve">
<path style="fill:#231F20;" d="M46.662,55.484c8.11-9.61,8.109-25.168-0.002-34.776c-0.007-0.009-0.014-0.019-0.021-0.028
	c-0.01-0.012-0.018-0.025-0.028-0.037c-2.244-2.639-4.907-4.616-7.816-5.854c1.16-0.491,2.307-1.19,3.307-2.191
	c3.919-3.925,3.858-10.766,3.854-11.055c-0.012-0.746-0.57-1.37-1.311-1.465C44.43,0.052,38.087-0.73,34.074,3.29
	c-1.218,1.22-2.05,2.721-2.621,4.22c-0.57-1.499-1.403-3-2.621-4.22C24.82-0.73,18.476,0.051,18.263,0.079
	c-0.74,0.095-1.299,0.719-1.311,1.465c-0.004,0.289-0.066,7.13,3.854,11.055c1,1.002,2.146,1.7,3.307,2.191
	c-2.909,1.237-5.572,3.214-7.816,5.854c-0.009,0.011-0.017,0.023-0.026,0.034c-0.009,0.011-0.017,0.023-0.026,0.034
	c-8.108,9.608-8.108,25.164,0,34.772c0.009,0.011,0.017,0.023,0.026,0.034c0.009,0.011,0.017,0.023,0.026,0.034
	c4.033,4.743,9.416,7.355,15.156,7.355s11.123-2.612,15.156-7.355c0.009-0.011,0.017-0.023,0.026-0.034
	C46.644,55.506,46.653,55.495,46.662,55.484z M40.465,46.382l5.075-5.969l3.057,3.596c0.119,0.14,0.263,0.246,0.415,0.331
	c-0.707,2.82-1.916,5.496-3.603,7.857L40.465,46.382z M17.498,52.196c-1.688-2.361-2.896-5.037-3.603-7.857
	c0.152-0.085,0.295-0.19,0.415-0.331l3.057-3.596l5.075,5.969L17.498,52.196z M13.264,35.587l2.134,2.51l-2.134,2.51
	C13.102,38.939,13.102,37.256,13.264,35.587z M17.498,23.999l4.943,5.814l-5.074,5.968l-3.057-3.596
	c-0.12-0.141-0.262-0.249-0.414-0.334C14.603,29.033,15.811,26.358,17.498,23.999z M19.336,38.097l5.074-5.968l5.075,5.969
	l-5.074,5.968L19.336,38.097z M26.379,29.813l5.075-5.969l5.075,5.969l-5.075,5.969L26.379,29.813z M31.453,40.413l5.075,5.969
	l-5.074,5.968l-5.075-5.969L31.453,40.413z M33.422,38.098l5.075-5.969l5.075,5.969l-5.075,5.969L33.422,38.098z M45.409,23.999
	c1.687,2.36,2.895,5.035,3.603,7.854c-0.152,0.085-0.294,0.194-0.414,0.334l-3.057,3.596l-5.075-5.969L45.409,23.999z
	 M49.643,40.607l-2.134-2.51l2.134-2.51C49.805,37.256,49.805,38.939,49.643,40.607z M43.458,21.662l-4.961,5.835l-5.075-5.969
	l3.374-3.968c0.068-0.081,0.126-0.166,0.175-0.256C39.346,18.197,41.544,19.675,43.458,21.662z M31.454,16.287
	c0.784,0,1.556,0.08,2.322,0.195l-2.322,2.731l-2.322-2.731C29.897,16.366,30.67,16.287,31.454,16.287z M25.936,17.305
	c0.049,0.089,0.107,0.175,0.175,0.256l3.374,3.968l-5.075,5.969l-4.961-5.836C21.363,19.675,23.561,18.196,25.936,17.305z
	 M19.449,54.533l4.961-5.836l5.075,5.969l-3.374,3.968c-0.069,0.081-0.126,0.167-0.175,0.256
	C23.561,57.998,21.363,56.519,19.449,54.533z M29.132,59.712l2.322-2.731l2.322,2.731c-0.766,0.115-1.538,0.195-2.322,0.195
	C30.67,59.907,29.897,59.828,29.132,59.712z M36.971,58.89c-0.049-0.089-0.107-0.175-0.175-0.256l-3.373-3.968l5.074-5.968
	l4.961,5.835C41.544,56.519,39.346,57.998,36.971,58.89z"/>
<g>
</g>
<g>
</g>
<g>
</g>
<g>
</g>
<g>
</g>
<g>
</g>
<g>
</g>
<g>
</g>
<g>
</g>
<g>
</g>
<g>
</g>
<g>
</g>
<g>
</g>
<g>
</g>
<g>
</g>
</svg>
