<?xml version="1.0" encoding="iso-8859-1"?>
<!-- Generator: Adobe Illustrator 17.1.0, SVG Export Plug-In . SVG Version: 6.00 Build 0)  -->
<!DOCTYPE svg PUBLIC "-//W3C//DTD SVG 1.1//EN" "http://www.w3.org/Graphics/SVG/1.1/DTD/svg11.dtd">
<svg version="1.1" id="Capa_1" xmlns="http://www.w3.org/2000/svg" xmlns:xlink="http://www.w3.org/1999/xlink" x="0px" y="0px"
	 viewBox="0 0 490 490" style="enable-background:new 0 0 490 490;" xml:space="preserve">
<g>
	<path d="M487.185,121.089h-28.161c-1.556,0-2.816,1.261-2.816,2.819c0,116.459-94.749,211.206-211.208,211.206
		c-116.461,0-211.208-94.747-211.208-211.206c0-1.559-1.261-2.819-2.817-2.819H2.814c-1.556,0-2.814,1.261-2.814,2.819
		c0,135.095,109.906,245.002,245.001,245.002C380.094,368.911,490,259.003,490,123.909C490,122.35,488.742,121.089,487.185,121.089z
		"/>
	<path d="M436.494,121.089H245.001H53.506c-1.557,0-2.816,1.261-2.816,2.819c0,107.144,87.165,194.309,194.311,194.309
		c107.144,0,194.311-87.165,194.311-194.309C439.311,122.35,438.048,121.089,436.494,121.089z M66.126,149.958
		c-0.718-4.086,4.602-8.43,11.883-9.711c7.284-1.287,13.771,0.98,14.493,5.06c0.716,4.081-4.603,8.424-11.888,9.711
		C73.331,156.297,66.848,154.039,66.126,149.958z M103.049,209.032c-6.407,3.697-13.274,3.792-15.35,0.201
		c-2.071-3.59,1.442-9.491,7.848-13.188c6.406-3.697,13.276-3.792,15.348-0.206C112.966,199.433,109.451,205.335,103.049,209.032z
		 M142.6,252.119c-4.754,5.661-11.177,8.098-14.352,5.436c-3.173-2.668-1.893-9.416,2.861-15.077
		c4.755-5.67,11.18-8.105,14.354-5.442C148.64,239.703,147.352,246.451,142.6,252.119z M194.503,279.079
		c-2.529,6.949-7.731,11.431-11.624,10.018c-3.895-1.418-4.997-8.205-2.467-15.153c2.529-6.947,7.733-11.431,11.624-10.018
		C195.931,265.344,197.033,272.124,194.503,279.079z M245.001,300.044c-4.143,0-7.499-5.994-7.499-13.389
		c0-7.395,3.355-13.389,7.499-13.389c4.142,0,7.497,5.994,7.497,13.389C252.497,294.05,249.142,300.044,245.001,300.044z
		 M307.121,289.097c-3.894,1.412-9.095-3.069-11.624-10.018c-2.53-6.955-1.428-13.734,2.467-15.153
		c3.892-1.412,9.095,3.071,11.624,10.018C312.118,280.892,311.018,287.679,307.121,289.097z M361.751,257.554
		c-3.175,2.662-9.598,0.226-14.352-5.436c-4.752-5.668-6.04-12.416-2.863-15.084c3.173-2.662,9.598-0.228,14.352,5.442
		C363.644,248.138,364.925,254.886,361.751,257.554z M402.3,209.233c-2.075,3.591-8.942,3.496-15.35-0.201
		c-6.402-3.696-9.918-9.599-7.846-13.193c2.071-3.586,8.942-3.491,15.348,0.206C400.858,199.742,404.37,205.643,402.3,209.233z
		 M423.873,149.958c-0.722,4.081-7.205,6.34-14.487,5.06c-7.283-1.287-12.605-5.63-11.888-9.711
		c0.722-4.079,7.208-6.347,14.493-5.06C419.272,141.528,424.592,145.872,423.873,149.958z"/>
</g>
<g>
</g>
<g>
</g>
<g>
</g>
<g>
</g>
<g>
</g>
<g>
</g>
<g>
</g>
<g>
</g>
<g>
</g>
<g>
</g>
<g>
</g>
<g>
</g>
<g>
</g>
<g>
</g>
<g>
</g>
</svg>
