<?xml version="1.0" encoding="iso-8859-1"?>
<!-- Generator: Adobe Illustrator 18.1.1, SVG Export Plug-In . SVG Version: 6.00 Build 0)  -->
<svg version="1.1" id="Capa_1" xmlns="http://www.w3.org/2000/svg" xmlns:xlink="http://www.w3.org/1999/xlink" x="0px" y="0px"
	 viewBox="0 0 611.998 611.998" style="enable-background:new 0 0 611.998 611.998;" xml:space="preserve">
<g>
	<path d="M472.635,236.943c0-49.294-40.103-89.396-89.395-89.396c-6.64,0-13.146,0.74-19.49,2.155v-29.587h11.59
		c6.983,0,12.645-5.66,12.645-12.644V52.472c0-6.983-5.662-12.644-12.645-12.644h-30.306V12.644C345.034,5.66,339.373,0,332.389,0
		h-74.185c-6.983,0-12.645,5.66-12.645,12.644v27.183h-48.774c-4.301,0-8.308,2.187-10.635,5.803
		c-2.327,3.617-2.655,8.169-0.873,12.083l25.06,54.999c2.054,4.507,6.552,7.401,11.506,7.401h4.997v99.421
		c-28.891,18.854-51.06,43.471-66.047,73.386c-16.972,33.877-23.918,73.018-20.641,116.336c2.264,29.926,8.643,64.587,17.504,95.096
		c11.809,40.657,27.326,72.878,46.123,95.768c6.174,7.52,15.392,11.878,25.123,11.878h132.78c9.729,0,18.947-4.358,25.123-11.877
		c18.797-22.89,34.316-55.109,46.125-95.765c8.863-30.511,15.243-65.173,17.505-95.1c2.783-36.823-1.845-70.613-13.712-100.729
		C459.094,291.771,472.635,265.201,472.635,236.943z M383.238,180.054c31.367,0,56.886,25.519,56.886,56.888
		c0,15.958-6.809,31.056-18.293,41.715c-14.488-23.547-33.927-43.353-58.083-59.118v-36.05
		C369.969,181.209,376.499,180.054,383.238,180.054z M259.351,238.089V120.115h71.888v117.981
		c64.023,33.87,92.361,94.927,86.782,168.711c-1.706,22.569-6.352,52.065-14.353,81.5l-19.87-0.006
		c0,0,11.459-112.004-72.248-112.004c-50.581,0-119.035,0-139.283,0C175.753,316.299,204.391,267.165,259.351,238.089z"/>
</g>
<g>
</g>
<g>
</g>
<g>
</g>
<g>
</g>
<g>
</g>
<g>
</g>
<g>
</g>
<g>
</g>
<g>
</g>
<g>
</g>
<g>
</g>
<g>
</g>
<g>
</g>
<g>
</g>
<g>
</g>
</svg>
