<?xml version="1.0" encoding="iso-8859-1"?>
<!-- Generator: Adobe Illustrator 18.1.1, SVG Export Plug-In . SVG Version: 6.00 Build 0)  -->
<svg version="1.1" id="Capa_1" xmlns="http://www.w3.org/2000/svg" xmlns:xlink="http://www.w3.org/1999/xlink" x="0px" y="0px"
	 viewBox="0 0 32.301 32.301" style="enable-background:new 0 0 32.301 32.301;" xml:space="preserve">
<g>
	<g id="b161_canned_food">
		<path d="M29.638,28.326v-9.619c0.035-0.031,0.071-0.062,0.104-0.098c0.347-0.217,0.542-0.463,0.542-0.729
			c0-0.08-0.021-0.154-0.054-0.229c0.563-2.471-2.172-7.264-6.786-11.564c-5.309-4.948-11.098-7.368-12.927-5.405
			c-1.829,1.961,0.994,7.562,6.303,12.514c0.92,0.855,1.852,1.635,2.775,2.33c-1.201-0.047-2.377-0.074-3.456-0.074
			c-5.684-0.001-14.143,0.646-14.143,2.429c0,0.295,0.235,0.555,0.646,0.791v9.67c-0.418,0.287-0.646,0.594-0.646,0.912
			c0,1.678,6.337,3.047,14.155,3.047c7.817,0,14.154-1.369,14.154-3.047C30.306,28.932,30.07,28.621,29.638,28.326z M16.14,19.736
			c-4.456,0-10.614-0.4-13.067-1.43h0.022c-0.35-0.154-0.527-0.301-0.527-0.426c0-0.646,4.661-1.857,13.572-1.857
			c1.56,0,2.983,0.037,4.28,0.104c2.117,1.482,4.154,2.5,5.822,2.93C23.3,19.539,19.295,19.736,16.14,19.736z"/>
	</g>
	<g id="Capa_1_84_">
	</g>
</g>
<g>
</g>
<g>
</g>
<g>
</g>
<g>
</g>
<g>
</g>
<g>
</g>
<g>
</g>
<g>
</g>
<g>
</g>
<g>
</g>
<g>
</g>
<g>
</g>
<g>
</g>
<g>
</g>
<g>
</g>
</svg>
